<svg width="200" height="70" viewBox="0 0 200 70" fill="none" xmlns="http://www.w3.org/2000/svg">
<g clip-path="url(#clip0_1333_3731)">
<path d="M72.5336 16.349L70.7492 16.8546C70.6939 16.8701 70.6484 16.93 70.6484 16.9875V17.6949C70.6484 17.7522 70.6937 17.7859 70.7487 17.7691L72.5344 17.2328C72.5892 17.2164 72.6342 17.1559 72.6342 17.0984V16.4252C72.6342 16.377 72.6025 16.3453 72.5597 16.3453C72.5513 16.3453 72.5427 16.3465 72.5336 16.349Z" fill="url(#paint0_linear_1333_3731)"/>
<mask id="mask0_1333_3731" style="mask-type:luminance" maskUnits="userSpaceOnUse" x="-40" y="-47" width="170" height="170">
<path d="M-40 -47H130V123H-40V-47Z" fill="white"/>
</mask>
<g mask="url(#mask0_1333_3731)">
<path d="M43.0189 15.7505C36.7753 15.7505 30.799 18.0769 26.1868 22.2998C21.6038 26.4947 18.7602 32.1918 18.1797 38.3388L18.8905 39.4844L19.3946 39.4106C19.4917 39.3959 19.5925 39.3811 19.738 39.3669L19.9351 39.3027L19.9548 39.11C20.5343 33.2386 23.271 27.8005 27.6598 23.7991C32.0768 19.7701 37.7966 17.5511 43.7656 17.5511C46.9456 17.5511 49.9821 18.1754 52.76 19.3073V17.9272C49.6862 16.5631 46.355 15.7505 43.0189 15.7505Z" fill="#1D6434"/>
<path d="M79.5435 31.385C79.4574 31.6171 79.3702 31.8484 79.2839 32.0806C78.1331 35.1795 76.9845 38.2794 75.8347 41.3783C75.5442 42.1597 75.253 42.9418 74.9634 43.7249C74.914 43.8576 74.8626 43.9798 74.6918 43.9925C74.5274 44.0029 74.4534 43.9011 74.378 43.7758C73.7003 42.6102 73.0163 41.4469 72.3357 40.2826C72.3114 40.247 72.29 40.2108 72.2516 40.1484C71.8982 40.507 71.561 40.8543 71.2161 41.1984C70.3623 42.0562 68.9251 43.5808 68 44.5148C69.3523 45.3493 70.9448 45.832 72.6503 45.832C77.5476 45.832 81.5198 41.8613 81.5198 36.9637C81.5198 34.8494 80.7783 32.9089 79.5435 31.385ZM69.9122 38.0572C68.7123 39.2577 66.8693 41.193 65.6556 42.4126C64.4825 40.9086 63.7812 39.0185 63.7812 36.9637C63.7812 32.0656 67.7532 28.0952 72.6503 28.0952C75.0689 28.0952 77.2606 29.0645 78.8611 30.6349C76.6943 31.4381 74.5284 32.2424 72.362 33.0458C70.4102 33.7712 68.4549 34.4935 66.5024 35.2184C66.3635 35.2697 66.2175 35.3118 66.2035 35.4996C66.1895 35.6836 66.3139 35.7547 66.4456 35.8311C67.3135 36.3365 68.1809 36.846 69.0483 37.3521C69.3712 37.5428 69.6954 37.733 70.0334 37.9299C69.9857 37.9791 69.9537 38.0194 69.9122 38.0572Z" fill="#1D6434"/>
<path d="M65.5395 61.5512C61.1227 65.5799 55.4031 67.7989 49.4339 67.7989C42.394 67.7989 36.0554 64.7413 31.673 59.8848L30.6016 61.3934C35.1801 66.6627 41.9221 70.0039 49.4339 70.0039C55.6772 70.0039 61.6536 67.6775 66.2658 63.4544C70.804 59.3008 73.6331 52.4929 74.2517 46.4153C73.9098 46.4726 73.5623 46.5131 73.2088 46.5335C72.5683 52.2921 69.8553 57.6161 65.5395 61.5512Z" fill="#231F20"/>
<path d="M59.2315 11.4142L58.3609 11.6829H57.5255L57.2376 11.4142H59.2315ZM58.8871 11.0701H58.3653V6.38417H58.8871V11.0701ZM60.0133 5.77166L59.7258 6.04031H57.5255L57.2367 5.77117L60.0133 5.77166ZM59.9939 3.47599C59.9939 3.51655 59.9625 3.54924 59.9231 3.54973H57.2635C57.2261 3.54924 57.2013 3.52024 57.2005 3.47624C57.2005 3.44036 57.2293 3.41111 57.2635 3.41111H59.9231C59.9578 3.41111 59.9939 3.44478 59.9939 3.47599ZM58.2847 2.76566C58.2847 2.67153 58.2073 2.59435 58.1124 2.59435H57.5277C57.5459 2.54372 57.5665 2.49775 57.5891 2.45572H57.902C57.9969 2.45572 58.0731 2.37879 58.0731 2.28392C58.0731 2.18929 57.9969 2.11236 57.902 2.11236H57.8605C57.9091 2.06983 57.9608 2.03174 58.0136 1.99831H59.1727C59.4414 2.16643 59.6331 2.43139 59.7049 2.73297H59.479C59.3839 2.73297 59.3077 2.81015 59.3077 2.90478C59.3077 2.98048 59.3561 3.04488 59.4244 3.06725H57.4503L57.4493 3.00703C57.4493 2.98392 57.4517 2.96082 57.4537 2.93772H58.1124C58.2073 2.93772 58.2847 2.86078 58.2847 2.76566ZM58.3867 1.6547L58.4993 1.54139H58.6957L58.8087 1.6547H58.3867ZM59.4156 5.42756V4.49675C59.4156 4.40876 59.4888 4.33404 59.5751 4.33404C59.6599 4.33404 59.7265 4.40606 59.7267 4.49675V5.42756H59.4156ZM58.9206 4.33404C59.0063 4.33404 59.0725 4.40606 59.0725 4.49675V5.42756H58.7687V4.49749C58.7696 4.40606 58.8363 4.33404 58.9206 4.33404ZM58.266 4.33404C58.3521 4.33404 58.426 4.40925 58.4265 4.49675V5.42756H58.1139V4.49749C58.1154 4.40606 58.182 4.33404 58.266 4.33404ZM57.4589 5.42756L57.4598 4.49577C57.4608 4.40606 57.5277 4.33454 57.6105 4.33404C57.7007 4.33454 57.7693 4.40483 57.7705 4.49675V5.42756H57.4589ZM68.3741 11.4142L68.0858 11.6829H67.2113L66.6477 11.5076C66.6383 11.5047 66.6327 11.5047 66.6327 11.5067L66.3345 11.4142H68.3741ZM67.2454 11.0701H66.7241V6.38417H67.2454V11.0701ZM68.3741 5.77117L68.0858 6.04031H65.8852L65.5979 5.77117H68.3741ZM68.2829 3.54973H65.6237C65.5878 3.54924 65.5603 3.51753 65.5601 3.47624C65.5601 3.44036 65.5878 3.41111 65.6227 3.41111H68.2829C68.3171 3.41111 68.3537 3.44478 68.3539 3.47599C68.3537 3.51679 68.3213 3.54973 68.2829 3.54973ZM66.6435 2.76566C66.6435 2.67153 66.5663 2.59435 66.4722 2.59435H65.8887C65.9074 2.54347 65.9283 2.49775 65.9499 2.45572H66.2618C66.3559 2.45572 66.4331 2.37879 66.4331 2.28392C66.4331 2.18929 66.3559 2.11236 66.2618 2.11236H66.2234C66.2719 2.06983 66.322 2.03174 66.3739 1.99831H67.5325C67.8012 2.16717 67.9931 2.43237 68.0647 2.73297H67.8388C67.7437 2.73297 67.6667 2.81015 67.6667 2.90478C67.6667 2.98048 67.7159 3.04488 67.7845 3.06725H65.8117V3.05766C65.8095 3.04021 65.8095 3.02399 65.8095 3.00801C65.8095 2.98442 65.8117 2.96082 65.814 2.93772H66.4722C66.5663 2.93772 66.6435 2.86078 66.6435 2.76566ZM66.7494 1.6547L66.8605 1.54139H67.055L67.1673 1.6547H66.7494ZM67.7758 5.42756V4.49749C67.7758 4.40704 67.8484 4.33404 67.9366 4.33404C68.0199 4.33404 68.087 4.40606 68.0873 4.49675V5.42756H67.7758ZM67.2801 4.33404C67.3654 4.33404 67.432 4.40606 67.432 4.49675V5.42756H67.1292V4.49749C67.1297 4.40606 67.196 4.33404 67.2801 4.33404ZM66.6256 4.33404C66.716 4.33503 66.7846 4.40483 66.7863 4.49675V5.42756H66.4737V4.49749C66.4742 4.40631 66.541 4.33454 66.6256 4.33404ZM65.8186 5.42756V4.49774C65.8191 4.40483 65.8879 4.33454 65.9777 4.33404C66.0637 4.33404 66.1293 4.40606 66.1303 4.49675V5.42756H65.8186ZM72.6063 23.4405V24.5332L72.3109 24.6266V23.5348L72.6063 23.4405ZM63.972 26.2046V27.2804L63.0894 27.5611L63.1012 26.4836L63.972 26.2046ZM62.7586 26.4821L62.7463 27.5734L61.7457 27.2534L61.7508 26.1616L62.7586 26.4821ZM54.3909 18.5898V19.4393L52.9985 18.975L52.997 18.1199L54.3909 18.5898ZM54.3924 19.8011V20.4694L53.002 20.0117L52.9988 19.3365L54.3924 19.8011ZM54.3924 20.8304V22.023L53.0069 21.583L53.0027 20.374L54.3924 20.8304ZM53.0093 22.3774C53.0106 22.3735 53.0135 22.3659 53.0135 22.3565V21.9453L54.3924 22.3838V23.4609L53.3094 23.1168L53.3011 23.1143L53.0106 23.0216L53.0098 22.987C53.0113 22.9845 53.0135 22.9784 53.012 22.9621L53.0093 22.3774ZM55.5879 24.2014V25.2878L54.7173 25.0101C54.7102 25.0061 54.7018 25.0044 54.6942 25.0027L53.0201 24.4683L53.014 23.3827L55.5879 24.2014ZM70.9008 22.5576V23.6157H70.8949V23.6275L69.0771 24.209V23.1408L70.9008 22.5576ZM67.9614 24.927L68.0366 24.9029L68.0386 24.9034L68.6179 24.7168L68.644 24.7166L68.6848 24.706V24.6955L68.8691 24.6372C68.879 24.6397 68.892 24.6431 68.905 24.6431C68.952 24.6431 68.9974 24.6217 69.0299 24.5853L69.7854 24.344V25.4309L67.9614 26.0119V24.927ZM68.7337 26.1257V27.1184L67.2096 27.6334V26.6074C67.2204 26.6062 67.2309 26.6038 67.241 26.6008L68.7337 26.1257ZM58.5929 25.1568C58.6155 25.1693 58.6406 25.1779 58.6568 25.1779L59.622 25.4847V26.5755L58.7672 26.3027C58.7382 26.2842 58.7092 26.2754 58.6802 26.2749L58.0974 26.0888L58.0851 24.9958L58.5929 25.1568ZM65.4315 27.1772L65.929 27.0184C65.9565 27.0174 65.9836 27.0088 66.002 26.9948L66.0708 26.9732C66.1131 26.9599 66.1495 26.9297 66.1723 26.8869C66.1917 26.8473 66.1957 26.8011 66.1829 26.7618L66.1809 26.7392L66.0942 26.6271V25.5257L67.0412 25.2222C67.0704 25.2217 67.098 25.2128 67.126 25.1944L67.4536 25.0902L67.4888 25.0897V25.0784L67.6176 25.0373V26.1208L67.1378 26.2734C67.1105 26.282 67.0869 26.2975 67.066 26.3189C67.0577 26.3174 67.0486 26.3159 67.0382 26.3159C66.9436 26.3159 66.8667 26.3926 66.8667 26.4885V27.7494L65.4315 28.2348V27.1772ZM66.8667 23.849V24.9176L65.4315 25.3768V24.3081L66.8667 23.849ZM60.6285 25.4431V24.3749L62.8819 25.0926C62.9208 25.1032 62.9584 25.0985 62.9835 25.0922L63.4723 24.9349C63.5451 24.9122 63.593 24.8461 63.593 24.7704C63.593 24.7512 63.5888 24.7348 63.5851 24.7183C63.5559 24.6313 63.4615 24.5792 63.3684 24.6077L62.9311 24.7478L60.5349 23.9849C60.5199 23.977 60.5049 23.9733 60.4958 23.9719L57.4913 23.0147V20.8548L58.0861 21.0531C58.1739 21.0809 58.2763 21.0293 58.3036 20.9445C58.3181 20.9007 58.3149 20.8538 58.2943 20.814C58.2736 20.7727 58.2383 20.7422 58.195 20.7277L57.4913 20.4925V19.6305L57.773 19.7254C57.7779 19.7285 57.785 19.7337 57.7944 19.7367C57.8062 19.7408 57.8167 19.7411 57.8189 19.7408L58.3528 19.9198C58.3577 19.9244 58.3653 19.9291 58.3759 19.9335L62.8534 21.4417C62.9001 21.4555 62.9567 21.4501 63.0016 21.4188L63.5404 21.2338C63.5483 21.2308 63.5534 21.2271 63.5517 21.2271L63.551 21.2281L64.1035 21.0384C64.1077 21.0374 64.1143 21.0366 64.1212 21.0347C64.1296 21.0322 64.135 21.028 64.135 21.0271L72.6063 18.1211V18.9912L68.5498 20.3735C68.4673 20.4067 68.4235 20.4971 68.4483 20.5819L68.4859 20.648C68.5309 20.6967 68.6069 20.7178 68.669 20.696L72.6063 19.354V21.6506L67.0353 23.4338C67.006 23.4343 66.9783 23.4436 66.9505 23.4616L65.2482 24.0063C65.2231 24.0075 65.1983 24.0158 65.1801 24.0276L64.5381 24.2336C64.4946 24.2471 64.4579 24.2774 64.4373 24.3184C64.4164 24.3597 64.4127 24.4074 64.4265 24.4479C64.4535 24.534 64.5481 24.5883 64.6423 24.5608L65.0869 24.4187V25.4869L64.1114 25.7995C64.0932 25.803 64.078 25.8076 64.0723 25.8118L62.9311 26.1771L61.6523 25.7698C61.6466 25.7673 61.6407 25.7654 61.6294 25.7622L60.6285 25.4431ZM59.9649 25.5943L60.3565 25.7184C60.3874 25.7415 60.4221 25.7533 60.4572 25.7533H60.4656L61.4082 26.0522L61.4018 27.1442L60.5602 26.8754C60.5295 26.8515 60.4943 26.8385 60.4572 26.8385C60.4538 26.8385 60.4506 26.839 60.4476 26.8395L59.9649 26.6846V25.5943ZM58.5067 23.6985V24.7699L57.4913 24.4428V23.3746L58.5067 23.6985ZM56.8021 25.6796C56.7918 25.6796 56.7812 25.6813 56.7721 25.683C56.7544 25.6658 56.7335 25.653 56.7117 25.6464L55.931 25.3974V24.3108L57.741 24.8862L57.7528 26.0333C57.7108 26.0542 57.6783 26.0888 57.6648 26.1311C57.6363 26.2218 57.6869 26.3184 57.7764 26.3472L58.5067 26.5802V27.6314L56.9742 27.1226V25.8516C56.9742 25.7563 56.897 25.6796 56.8021 25.6796ZM59.2536 25.0076L58.8498 24.8791V23.8077L60.2859 24.2656V25.3338L59.8742 25.203C59.8587 25.1951 59.8425 25.1895 59.8265 25.1875L59.2706 25.0101L59.2536 25.0076ZM64.3156 26.0942L65.255 25.7941H65.2597C65.2929 25.7941 65.3258 25.7828 65.3551 25.7614L65.7503 25.6356V26.7153L64.3156 27.171V26.0942ZM67.7144 24.6458L67.2096 24.8075V23.7391L68.7337 23.2512V24.3199L67.7672 24.6296C67.7449 24.632 67.7245 24.6394 67.7144 24.6458ZM54.1137 16.0147C54.1992 16.0429 54.3034 15.9916 54.3305 15.9068C54.3454 15.8625 54.343 15.8163 54.3223 15.7758C54.3017 15.7335 54.2663 15.7025 54.2233 15.689L52.9865 15.2739L52.9818 13.8168L61.437 16.6616V16.6727H61.4711L62.7593 17.106L62.7517 18.5493L55.3871 16.0793C55.3008 16.0518 55.1978 16.1044 55.1701 16.1867C55.1551 16.2307 55.1588 16.2779 55.1792 16.3195C55.2005 16.3595 55.235 16.39 55.2787 16.4052L62.8677 18.9501C62.9004 18.9612 62.9372 18.9629 62.9771 18.9496L63.5387 18.7579C63.6075 18.7338 63.6542 18.6687 63.6542 18.5952C63.6542 18.5763 63.6508 18.5571 63.6446 18.5409C63.6164 18.4556 63.5149 18.403 63.4264 18.433L63.0953 18.5465L63.1024 17.1057L72.6063 13.8512V15.2304C72.6063 15.2508 72.6103 15.2699 72.6174 15.2889L64.5885 18.0358C64.501 18.0663 64.4525 18.1631 64.4813 18.2536C64.5101 18.3389 64.6155 18.39 64.7 18.3607L72.6063 15.6553V17.7583L62.9019 21.0875L57.3755 19.2289L54.6237 18.2924L54.6107 18.2877L52.9956 17.7413L52.9889 15.6371L54.1137 16.0147ZM54.7348 18.7051L57.1484 19.5189V24.3344L56.8881 24.2511C56.8832 24.2501 56.8783 24.2489 56.8756 24.2489C56.8744 24.2489 56.8736 24.2498 56.8741 24.2506L56.5593 24.1503C56.5445 24.1402 56.5295 24.1316 56.514 24.1267L54.7348 23.569V18.7051ZM60.2859 27.1482V28.2228L58.8498 27.7457V26.6895L60.2859 27.1482ZM62.7423 27.933L62.7296 29.0349L60.6285 28.3368V27.2576L62.7423 27.933ZM70.9008 25.4363V26.3853L69.0771 27.0022V26.0166L70.9008 25.4363ZM71.9678 23.6445V24.7363L70.1281 25.3217V24.2341L71.9678 23.6445ZM72.6063 22.0114V23.0799L71.2439 23.5154V22.4475L72.6063 22.0114ZM72.8541 13.4383L68.3264 12.0297V11.9282L68.9259 11.3675C68.9785 11.3191 68.995 11.2449 68.9679 11.1788C68.9411 11.1127 68.8782 11.0701 68.8087 11.0701H68.3245V9.14708C68.3245 9.05246 68.2485 8.97528 68.1546 8.97528C68.0588 8.97528 67.9823 9.05246 67.9823 9.14708V11.0701H67.5903V6.38417H67.9823V7.91888C67.9823 8.01375 68.0588 8.09093 68.1546 8.09093C68.2492 8.09093 68.3264 8.01375 68.3264 7.91888L68.3245 6.28635L68.9259 5.72521C68.9775 5.67654 68.9945 5.60256 68.9679 5.53546C68.9411 5.47057 68.8782 5.42805 68.8087 5.42805H68.4299V3.85992C68.5904 3.79798 68.6971 3.64805 68.6978 3.47501C68.6958 3.31279 68.5926 3.1663 68.4373 3.10338L68.4383 3.07659C68.4405 3.04488 68.4405 3.01735 68.4405 2.99105C68.4405 2.97508 68.4402 2.95885 68.438 2.94337L68.4383 2.90478C68.4383 2.892 68.4355 2.88069 68.4331 2.87234C68.393 2.38961 68.1145 1.94866 67.6886 1.69329L67.2474 1.24767C67.2422 1.24349 67.2381 1.23956 67.2324 1.23612C67.2196 1.20245 67.2017 1.17246 67.1813 1.14788C67.1697 1.13436 67.1562 1.12404 67.1427 1.11347C67.2078 1.05473 67.2479 0.968946 67.2499 0.879479C67.2496 0.783867 67.2044 0.693908 67.1292 0.634181V-0.0673019C67.1292 -0.162422 67.052 -0.239353 66.9576 -0.239353C66.8632 -0.239353 66.7863 -0.162422 66.7863 -0.0673019V0.634181C66.7718 0.643275 66.7573 0.654091 66.7448 0.66933C66.6968 0.725862 66.6718 0.797877 66.6718 0.87997C66.6718 0.966979 66.7104 1.05251 66.774 1.11126C66.76 1.12158 66.7457 1.13313 66.7339 1.14739C66.7123 1.17295 66.6939 1.20294 66.6806 1.23685C66.6757 1.2403 66.6703 1.24374 66.6639 1.24988L66.2529 1.67313L66.2394 1.67854C66.0438 1.79332 65.87 1.95628 65.738 2.14972C65.7088 2.17307 65.6884 2.20403 65.6783 2.24017C65.5394 2.47637 65.4659 2.74182 65.4659 3.00801C65.4659 3.03038 65.4659 3.0525 65.4676 3.07585L65.4689 3.10387C65.3167 3.16704 65.2167 3.31328 65.2167 3.47648C65.2177 3.70531 65.3991 3.8931 65.6227 3.89334H68.0873V4.01624C67.9194 3.95848 67.7346 4.001 67.605 4.11627C67.4254 3.95504 67.1388 3.95209 66.9576 4.11431C66.8652 4.03418 66.7494 3.99117 66.6256 3.99117C66.5051 3.99117 66.3903 4.03394 66.3016 4.11357C66.1654 3.99314 65.9708 3.95725 65.7975 4.02582C65.7685 3.96954 65.7117 3.93193 65.6471 3.93193C65.5519 3.93193 65.475 4.00911 65.475 4.10399V5.42805H65.1624C65.0923 5.42805 65.0296 5.47082 65.0016 5.53718C64.9761 5.60379 64.9938 5.67728 65.0459 5.72472L65.6449 6.28635V9.04287C65.6449 9.1375 65.7228 9.21443 65.8174 9.21443C65.9115 9.21443 65.9885 9.1375 65.9885 9.04287V6.38417H66.3805V11.0701H65.9885V10.2708C65.9885 10.1762 65.9115 10.0993 65.8174 10.0993C65.7228 10.0993 65.6449 10.1762 65.6449 10.2708V11.0701H65.244L62.8527 10.3266C62.8203 10.3168 62.7822 10.317 62.7502 10.3266L60.3427 11.0701H59.9649V9.14659C59.9649 9.05196 59.8882 8.97479 59.7931 8.97479C59.6995 8.97479 59.622 9.05196 59.622 9.14659V11.0701H59.2298V6.38417H59.622V7.91863C59.622 8.01351 59.6995 8.0897 59.7931 8.0897C59.8882 8.0897 59.9649 8.01351 59.9649 7.91863V6.28659L60.5664 5.72472C60.6172 5.67654 60.6347 5.60059 60.6081 5.5362C60.5821 5.47008 60.5199 5.42756 60.4494 5.42756H60.0704V3.85967C60.2306 3.79798 60.337 3.64731 60.3378 3.47501C60.3361 3.31205 60.2318 3.1663 60.0772 3.10338L60.0787 3.07757C60.0799 3.04808 60.0809 3.01858 60.0809 2.98933C60.0809 2.97385 60.0795 2.95812 60.0782 2.94214C60.0772 2.93378 60.0758 2.92444 60.0758 2.92444L60.0787 2.90478C60.0787 2.89298 60.0758 2.88364 60.0731 2.87479C60.0337 2.39157 59.7567 1.95014 59.3303 1.69378L58.8871 1.2462C58.8822 1.24177 58.8773 1.23833 58.8724 1.23514C58.8599 1.20294 58.8424 1.1732 58.8203 1.14739C58.809 1.13362 58.7957 1.12305 58.7817 1.11298C58.8498 1.05522 58.8886 0.972141 58.8903 0.87997C58.8903 0.783867 58.8454 0.693908 58.7687 0.634181V-0.0673019C58.7687 -0.162422 58.692 -0.239353 58.5973 -0.239353C58.5027 -0.239353 58.4265 -0.162422 58.4265 -0.0673019V0.634181C58.412 0.643767 58.3965 0.655072 58.384 0.670557C58.3378 0.726596 58.312 0.79886 58.312 0.87997C58.3127 0.966979 58.3516 1.05251 58.4142 1.11126C58.3995 1.12158 58.3857 1.13289 58.3742 1.14739C58.3521 1.17393 58.3341 1.20392 58.3216 1.23612C58.3167 1.23956 58.3113 1.24349 58.3061 1.24841L57.8868 1.6719L57.8769 1.68026C57.6774 1.79602 57.508 1.9553 57.3743 2.15291C57.348 2.1738 57.3291 2.20256 57.319 2.23574C57.1801 2.4717 57.1069 2.73838 57.1069 3.00703C57.1069 3.0294 57.1069 3.0525 57.1079 3.07634L57.1086 3.10387C56.9577 3.16679 56.8572 3.31328 56.8572 3.47648C56.8577 3.70531 57.0398 3.8931 57.2635 3.89334H59.7267V4.01624C59.5589 3.95921 59.3753 4.001 59.2452 4.11627C59.155 4.03516 59.0405 3.99117 58.9206 3.99117C58.8004 3.99117 58.6871 4.03516 58.5961 4.11627C58.4142 3.95528 58.124 3.95258 57.9418 4.1148C57.8089 3.99657 57.6132 3.95504 57.4385 4.02386C57.4092 3.96806 57.3529 3.93193 57.2885 3.93193C57.1927 3.93193 57.1157 4.00862 57.1157 4.10349V5.42756H56.8021C56.7313 5.42756 56.6691 5.47008 56.6433 5.5362C56.6165 5.60256 56.6332 5.67654 56.6854 5.72472L57.2853 6.28635V9.04287C57.2853 9.1375 57.363 9.21443 57.4569 9.21443C57.5525 9.21443 57.6292 9.1375 57.6292 9.04287V6.38417H58.022V11.0701H57.6292V10.2708C57.6292 10.1762 57.5525 10.0993 57.4569 10.0993C57.363 10.0993 57.2853 10.1762 57.2853 10.2708V11.0701H56.8021C56.7313 11.0701 56.6691 11.1127 56.6433 11.1788C56.616 11.2449 56.6332 11.3194 56.6854 11.3675L57.2853 11.9294V12.015L54.5379 12.8637C54.4937 12.8772 54.4575 12.9069 54.4361 12.947C54.4148 12.9878 54.4101 13.0357 54.4246 13.0795C54.447 13.1517 54.5133 13.1999 54.5873 13.1999C54.6057 13.1999 54.6237 13.1974 54.6389 13.192L59.4544 11.7045L60.4265 11.4069C60.4331 11.4044 60.4393 11.4012 60.4376 11.401L62.8021 10.6707L65.1255 11.3934C65.1321 11.3975 65.1407 11.4027 65.1523 11.4059L72.2495 13.6094L64.5931 16.2317L62.9311 16.8012L53.3684 13.5841L53.4623 13.5548C53.4761 13.5511 53.4901 13.5447 53.5041 13.5366C53.5707 13.4958 53.6009 13.4147 53.5783 13.3402C53.5513 13.2532 53.4525 13.1999 53.3638 13.2264L52.7586 13.413L52.7458 13.4174L52.738 13.4243C52.7299 13.4265 52.7186 13.4305 52.7078 13.4381C52.6967 13.4457 52.6908 13.455 52.6805 13.4685C52.6758 13.473 52.6701 13.4784 52.6677 13.4838C52.651 13.5074 52.6424 13.5329 52.6394 13.5605L52.6367 13.5651L52.6478 17.1261C52.6478 17.1335 52.6495 17.1389 52.6495 17.1389C52.6495 17.1389 52.6507 17.1389 52.6507 17.1384L52.6497 17.7409C52.6497 17.7475 52.651 17.7529 52.6522 17.7529L52.6529 17.7524L52.6534 18.3462L52.6529 18.3484L52.6773 25.9325C52.6773 26.0062 52.7252 26.0716 52.795 26.0957L53.7629 26.4175C53.8502 26.4445 53.9497 26.3953 53.9782 26.3078C53.9927 26.2638 53.9891 26.2169 53.9686 26.1761C53.9478 26.136 53.9133 26.1053 53.8694 26.0908L53.0209 25.8079L53.0182 24.827L54.4713 25.2912V26.2921C54.4661 26.2891 54.4592 26.2862 54.4524 26.284C54.3654 26.2545 54.2641 26.3066 54.2341 26.3939C54.2208 26.4376 54.224 26.4841 54.2444 26.5241C54.2656 26.5659 54.3017 26.5971 54.3442 26.6104C54.3917 26.6261 54.445 26.6197 54.4853 26.5944C54.5114 26.6566 54.5726 26.6999 54.6441 26.6999C54.739 26.6999 54.8149 26.6229 54.8149 26.5283V25.4009L55.6889 25.6801C55.6929 25.6816 55.6973 25.683 55.7051 25.685L56.606 25.9728C56.6136 25.9758 56.6227 25.9777 56.6308 25.9792V27.0081L55.0351 26.4779C54.9496 26.4494 54.8459 26.5008 54.8171 26.5885C54.8144 26.5976 54.8122 26.6087 54.8107 26.62C54.8006 26.7011 54.8491 26.7778 54.9272 26.8038L62.8441 29.4352C62.8561 29.4399 62.8701 29.4421 62.8874 29.4426L62.8991 29.4434L62.9019 29.4429C62.921 29.4426 62.9372 29.4407 62.9532 29.435L63.1921 29.3536C63.2361 29.3394 63.2713 29.3094 63.2917 29.2676C63.3118 29.2263 63.3153 29.1791 63.3013 29.1359C63.273 29.0521 63.1663 29.0004 63.0835 29.0285L63.0727 29.0322L63.0852 27.9236L64.1342 27.5896L64.1441 27.5906C64.1814 27.5906 64.2173 27.5781 64.2473 27.5535L65.0869 27.2863V28.3511L64.2458 28.6355C64.176 28.6593 64.1301 28.7249 64.1301 28.7979C64.1301 28.8198 64.1345 28.8382 64.1387 28.8537C64.1628 28.923 64.2284 28.97 64.3014 28.97C64.3213 28.97 64.3417 28.9663 64.3559 28.9604L67.0318 28.0556H67.0382C67.0749 28.0556 67.1105 28.0431 67.1427 28.0188L68.9227 27.4158C68.9478 27.4131 68.9709 27.4048 68.9844 27.3962L71.1068 26.678C71.1245 26.6741 71.1392 26.6694 71.1459 26.6655L72.4989 26.2075C72.5444 26.1935 72.581 26.1616 72.5987 26.1218C72.6199 26.0802 72.6233 26.0333 72.6086 25.9893C72.5803 25.9062 72.4748 25.8531 72.3903 25.8814L71.2439 26.269V25.3271L72.6063 24.8936V25.0553C72.6063 25.1509 72.6835 25.2271 72.7779 25.2271C72.8728 25.2271 72.95 25.1509 72.95 25.0553V13.6898C72.9667 13.6625 72.974 13.6313 72.9738 13.5996C72.9731 13.5243 72.9249 13.4602 72.8541 13.4383Z" fill="#231F20"/>
<path d="M53.9923 13.3652C54.0095 13.3652 54.0267 13.362 54.0427 13.3569C54.1331 13.3296 54.1835 13.2332 54.1562 13.1416C54.1336 13.071 54.0658 13.0216 53.9923 13.0216C53.9746 13.0216 53.9571 13.0238 53.9424 13.029C53.8976 13.0423 53.8625 13.0725 53.8401 13.1131C53.819 13.1534 53.8146 13.1996 53.8278 13.2423C53.849 13.3156 53.9156 13.3652 53.9923 13.3652Z" fill="#231F20"/>
<path d="M72.7887 25.486C72.6941 25.486 72.6172 25.5632 72.6172 25.6578C72.6172 25.7529 72.6941 25.8301 72.7887 25.8301C72.8836 25.8301 72.9606 25.7529 72.9606 25.6578C72.9606 25.5632 72.8836 25.486 72.7887 25.486Z" fill="#231F20"/>
<path d="M63.6599 28.8239C63.6159 28.8392 63.5808 28.8701 63.5609 28.9112C63.5405 28.9522 63.5375 28.9979 63.552 29.041C63.5751 29.111 63.6415 29.1582 63.7152 29.1582C63.7324 29.1582 63.7506 29.1553 63.7693 29.1491C63.8123 29.1351 63.8467 29.1051 63.8683 29.0643C63.8892 29.0233 63.8919 28.9758 63.8774 28.9311C63.8479 28.8463 63.7459 28.7937 63.6599 28.8239Z" fill="#231F20"/>
<path d="M57.2009 26.1538C57.2181 26.1594 57.2353 26.1621 57.2537 26.1621C57.3287 26.1621 57.3951 26.113 57.4167 26.0434C57.4312 26.0001 57.4277 25.9534 57.4061 25.9117C57.3845 25.8713 57.3491 25.8411 57.3056 25.8269C57.221 25.7996 57.1156 25.8529 57.0905 25.9372C57.0763 25.9802 57.08 26.0277 57.1016 26.0707C57.1227 26.111 57.1591 26.1417 57.2009 26.1538Z" fill="#231F20"/>
<path d="M66.554 26.4516C66.5087 26.4656 66.4736 26.4958 66.4524 26.5367C66.4318 26.5772 66.4281 26.6227 66.4414 26.6672C66.4642 26.7394 66.5299 26.7871 66.6053 26.7871C66.6201 26.7871 66.6358 26.7851 66.6594 26.7785C66.7022 26.7638 66.7371 26.7335 66.7572 26.694C66.7786 26.6534 66.7816 26.6072 66.7693 26.5634C66.7425 26.4777 66.637 26.4253 66.554 26.4516Z" fill="#231F20"/>
<path d="M63.9358 24.4081C63.891 24.4224 63.8549 24.4536 63.837 24.4907C63.8153 24.5305 63.8104 24.579 63.8239 24.6242C63.8473 24.696 63.9127 24.7441 63.9876 24.7441C64.0065 24.7441 64.0228 24.7412 64.0392 24.735C64.0835 24.7218 64.1191 24.6918 64.1408 24.6507C64.1614 24.6099 64.1651 24.5637 64.1513 24.519C64.1235 24.4349 64.0164 24.3809 63.9358 24.4081Z" fill="#231F20"/>
<path d="M56.8933 14.1523C56.9105 14.1523 56.9275 14.1501 56.9402 14.146L59.2878 13.4786C59.3615 13.4582 59.4124 13.3899 59.4124 13.3137C59.4124 13.2972 59.4104 13.282 59.4058 13.2677C59.3863 13.1965 59.3136 13.1426 59.2369 13.1426C59.2219 13.1426 59.2072 13.1446 59.1929 13.149L56.8456 13.8161C56.8036 13.8289 56.7675 13.8572 56.7439 13.898C56.722 13.9373 56.7168 13.9835 56.7294 14.0272C56.7493 14.101 56.8169 14.1523 56.8933 14.1523Z" fill="#231F20"/>
<path d="M59.8475 13.2988C59.8635 13.2988 59.88 13.2966 59.8952 13.2922C59.9387 13.2789 59.9758 13.2494 59.9975 13.2101C60.0196 13.17 60.0245 13.1236 60.0122 13.0801C59.9872 12.9936 59.8883 12.9353 59.8008 12.9614C59.7094 12.9874 59.6568 13.0833 59.6821 13.1737C59.7033 13.2479 59.7709 13.2988 59.8475 13.2988Z" fill="#231F20"/>
<path d="M60.4735 13.1436L62.9034 12.4527L68.6298 14.146C68.646 14.1501 68.6617 14.1523 68.6782 14.1523C68.7536 14.1523 68.8215 14.1012 68.8424 14.027C68.8547 13.9835 68.85 13.9356 68.8276 13.8982C68.8084 13.8626 68.7767 13.8355 68.7369 13.8198L62.956 12.1101C62.9245 12.0995 62.8859 12.0995 62.8574 12.1086L60.3784 12.8128C60.3329 12.8263 60.2958 12.8551 60.2764 12.8934C60.2543 12.9318 60.2479 12.9782 60.2599 13.0269C60.286 13.1129 60.386 13.1682 60.4735 13.1436Z" fill="#231F20"/>
<path d="M54.7042 16.2009C54.7227 16.2063 54.7401 16.209 54.7573 16.209C54.8311 16.209 54.8962 16.162 54.9195 16.0917C54.935 16.0487 54.9313 16.003 54.9114 15.9607C54.8915 15.9197 54.8542 15.8882 54.8138 15.875C54.7273 15.8452 54.6234 15.8963 54.5951 15.9824C54.5801 16.0261 54.5838 16.0728 54.6042 16.1151C54.6248 16.1559 54.6605 16.1861 54.7042 16.2009Z" fill="#231F20"/>
<path d="M64.0591 18.5605C64.0768 18.5605 64.0957 18.5578 64.1151 18.5515C64.2051 18.5195 64.2523 18.4219 64.221 18.3325C64.1916 18.2491 64.0827 18.1973 64.003 18.2265C63.9585 18.2415 63.9241 18.2722 63.9042 18.3133C63.8841 18.3543 63.8814 18.401 63.8959 18.4443C63.9209 18.5136 63.9858 18.5605 64.0591 18.5605Z" fill="#231F20"/>
<path d="M68.0388 20.8906C68.0584 20.8906 68.0769 20.8879 68.0936 20.8823C68.1363 20.8675 68.1717 20.837 68.1924 20.7965C68.213 20.7547 68.2162 20.708 68.2012 20.6643C68.1722 20.5795 68.0719 20.5271 67.983 20.5566C67.8933 20.5881 67.8458 20.6854 67.8765 20.7746C67.8994 20.8439 67.9655 20.8906 68.0388 20.8906Z" fill="#231F20"/>
<path d="M67.6084 20.8575C67.5848 20.7901 67.5152 20.7412 67.4417 20.7412C67.4238 20.7412 67.4059 20.7442 67.3901 20.7501L62.9013 22.2801L59.4905 21.1441L59.3978 21.1133L59.344 21.0949L59.3327 21.0932C59.2471 21.0757 59.1626 21.1286 59.1375 21.2067C59.1314 21.2247 59.1289 21.2441 59.1289 21.2672C59.1294 21.2925 59.1353 21.3159 59.1505 21.3454C59.151 21.3464 59.1523 21.3478 59.1523 21.3491L59.154 21.366L59.1768 21.3815C59.1837 21.3876 59.1896 21.3933 59.197 21.3992L59.2213 21.4221L59.2287 21.4174C59.2336 21.4203 59.2393 21.4225 59.2447 21.4245L62.8477 22.6249C62.8639 22.6301 62.8819 22.6328 62.9013 22.6328C62.9217 22.6328 62.9411 22.6294 62.9563 22.6237L67.501 21.0748C67.5904 21.0445 67.6376 20.9467 67.6084 20.8575Z" fill="#231F20"/>
<path d="M58.7812 20.8999C58.6954 20.8716 58.592 20.923 58.5632 21.0085C58.5489 21.052 58.5529 21.0985 58.5728 21.1395C58.5932 21.1803 58.6288 21.211 58.6699 21.2245C58.6868 21.2309 58.7058 21.2344 58.7262 21.2344C58.7997 21.2344 58.865 21.1877 58.8901 21.1162C58.9039 21.0731 58.9004 21.0274 58.8798 20.9864C58.8594 20.9451 58.8252 20.9141 58.7812 20.8999Z" fill="#231F20"/>
<path d="M68.1528 8.34658C68.0569 8.34658 67.9805 8.42376 67.9805 8.51789C67.9805 8.61277 68.0569 8.68945 68.1528 8.68945C68.2467 8.68945 68.3226 8.61277 68.3226 8.51789C68.3226 8.42376 68.2467 8.34658 68.1528 8.34658Z" fill="#231F20"/>
<path d="M65.8249 9.81055C65.919 9.81055 65.996 9.73337 65.996 9.63923C65.996 9.54387 65.919 9.46743 65.8249 9.46743C65.7303 9.46743 65.6523 9.54387 65.6523 9.63923C65.6523 9.73337 65.7303 9.81055 65.8249 9.81055Z" fill="#231F20"/>
<path d="M59.7922 8.34658C59.6983 8.34658 59.6211 8.42326 59.6211 8.51789C59.6211 8.61252 59.6983 8.68945 59.7922 8.68945C59.8873 8.68945 59.9637 8.61252 59.9637 8.51789C59.9637 8.42326 59.8873 8.34658 59.7922 8.34658Z" fill="#231F20"/>
<path d="M57.4528 9.81055C57.5484 9.81055 57.6249 9.73337 57.6249 9.63923C57.6249 9.54387 57.5484 9.46743 57.4528 9.46743C57.3587 9.46743 57.2812 9.54387 57.2812 9.63923C57.2812 9.73337 57.3587 9.81055 57.4528 9.81055Z" fill="#231F20"/>
</g>
<path d="M69.8932 17.0104L66.5372 18.1558C66.4667 18.1799 66.42 18.2465 66.4219 18.3202L66.4293 19.1456C66.431 19.1997 66.4576 19.2513 66.5026 19.283C66.5323 19.3041 66.5662 19.3145 66.6014 19.3145C66.6235 19.3145 66.6429 19.3115 66.6569 19.3054L69.9952 18.1708C70.0655 18.1475 70.1122 18.0818 70.1122 18.0083C70.1122 18.0083 70.1164 17.1579 70.1029 17.1193C70.0793 17.0517 70.0109 17.0043 69.9377 17.0043C69.9232 17.0043 69.9094 17.006 69.8932 17.0104Z" fill="url(#paint1_linear_1333_3731)"/>
<path d="M53.3561 16.4035C53.3444 16.4431 53.3483 16.5657 53.3483 16.5886V17.2903C53.3483 17.365 53.3957 17.4299 53.4655 17.4533L56.8046 18.5888C56.8213 18.5947 56.8417 18.5977 56.8589 18.5977C56.8945 18.5977 56.9287 18.5866 56.9594 18.566C57.0029 18.534 57.0297 18.4831 57.0305 18.4276L57.0388 17.5953C57.0393 17.5199 56.9938 17.454 56.9218 17.4299L53.5747 16.2956C53.5579 16.2902 53.5407 16.2875 53.5238 16.2875C53.4508 16.2875 53.3797 16.3347 53.3561 16.4035Z" fill="url(#paint2_linear_1333_3731)"/>
<path d="M57.4219 17.6841C57.3757 17.7163 57.3477 17.7689 57.3477 17.825V18.6577C57.3477 18.7307 57.3916 18.7946 57.4605 18.8189L59.0756 19.415C59.0945 19.4228 59.1151 19.4258 59.1363 19.4258C59.1721 19.4258 59.2085 19.4142 59.2341 19.3956C59.2796 19.3626 59.3073 19.3105 59.3073 19.254V18.4212C59.3073 18.3487 59.2636 18.2856 59.195 18.26L57.5794 17.664C57.5605 17.6571 57.5404 17.6539 57.5204 17.6539C57.4851 17.6539 57.4497 17.6642 57.4219 17.6841Z" fill="url(#paint3_linear_1333_3731)"/>
<mask id="mask1_1333_3731" style="mask-type:luminance" maskUnits="userSpaceOnUse" x="-40" y="-47" width="170" height="170">
<path d="M-40 -47H130V123H-40V-47Z" fill="white"/>
</mask>
<g mask="url(#mask1_1333_3731)">
<path d="M50.3056 45.1892C50.253 45.1363 50.2269 45.0722 50.2269 44.997V29.7128C50.2269 29.6374 50.253 29.5735 50.3056 29.5204C50.3584 29.468 50.4226 29.4415 50.4978 29.4415H53.143C53.2187 29.4415 53.2823 29.468 53.3354 29.5204C53.388 29.5735 53.4143 29.6374 53.4143 29.7128V36.0434C53.4143 36.0886 53.4298 36.1151 53.46 36.1225C53.4903 36.1306 53.52 36.1191 53.5507 36.0886L58.7735 29.5995C58.8632 29.4946 58.9765 29.4415 59.1125 29.4415H62.0971C62.2175 29.4415 62.2925 29.4751 62.323 29.5432C62.3529 29.6111 62.3379 29.69 62.2775 29.7807L57.2356 36.224C57.1904 36.2845 57.1825 36.3373 57.2132 36.3826L62.5491 44.952C62.5791 45.0419 62.5948 45.095 62.5948 45.11C62.5948 45.2155 62.5184 45.2683 62.3682 45.2683H59.3836C59.2326 45.2683 59.1272 45.2083 59.0675 45.0872L55.0427 38.5757C55.0277 38.546 55.0048 38.5305 54.9751 38.5305C54.9446 38.5305 54.9141 38.546 54.8846 38.5757L53.46 40.3619C53.4298 40.4223 53.4143 40.4673 53.4143 40.4973V44.997C53.4143 45.0722 53.388 45.1363 53.3354 45.1892C53.2823 45.2418 53.2187 45.2683 53.143 45.2683H50.4978C50.4226 45.2683 50.3584 45.2418 50.3056 45.1892ZM38.9445 44.7595C38.0552 44.2997 37.3692 43.6555 36.8872 42.8264C36.4045 41.9976 36.1636 41.0403 36.1636 39.9551V34.7318C36.1636 33.6469 36.4045 32.6896 36.8872 31.8608C37.3692 31.0317 38.0552 30.391 38.9445 29.9387C39.834 29.4869 40.8668 29.2606 42.0417 29.2606C43.2028 29.2606 44.224 29.4751 45.1054 29.9048C45.9878 30.3344 46.6736 30.9447 47.1634 31.7364C47.6528 32.5278 47.8981 33.4432 47.8981 34.4831C47.8981 34.619 47.8074 34.7018 47.627 34.7318L44.9816 34.8906H44.9361C44.7852 34.8906 44.7104 34.8078 44.7104 34.6416C44.7104 33.8428 44.4649 33.2025 43.9753 32.7198C43.4857 32.2376 42.841 31.9964 42.0417 31.9964C41.2281 31.9964 40.5763 32.2376 40.0864 32.7198C39.5968 33.2025 39.3518 33.8428 39.3518 34.6416V40.0905C39.3518 40.8743 39.5968 41.5075 40.0864 41.9895C40.5763 42.4722 41.2281 42.7133 42.0417 42.7133C42.841 42.7133 43.4857 42.4722 43.9753 41.9895C44.4649 41.5075 44.7104 40.8743 44.7104 40.0905C44.7104 39.9251 44.8009 39.8418 44.9816 39.8418L47.627 39.9551C47.7019 39.9551 47.7663 39.9775 47.8192 40.0227C47.8723 40.0684 47.8981 40.121 47.8981 40.181C47.8981 41.2209 47.6528 42.1407 47.1634 42.9397C46.6736 43.7388 45.9878 44.3559 45.1054 44.7932C44.224 45.231 43.2028 45.4492 42.0417 45.4492C40.8668 45.4492 39.834 45.2197 38.9445 44.7595ZM30.6132 45.1892C30.5606 45.1363 30.5346 45.0722 30.5346 44.997V29.7128C30.5346 29.6374 30.5606 29.5735 30.6132 29.5204C30.6658 29.468 30.7297 29.4415 30.8054 29.4415H33.4509C33.5263 29.4415 33.59 29.468 33.6431 29.5204C33.6959 29.5735 33.722 29.6374 33.722 29.7128V44.997C33.722 45.0722 33.6959 45.1363 33.6431 45.1892C33.59 45.2418 33.5263 45.2683 33.4509 45.2683H30.8054C30.7297 45.2683 30.6658 45.2418 30.6132 45.1892ZM17.6813 45.1892C17.6282 45.1363 17.6019 45.0722 17.6019 44.997V29.7128C17.6019 29.6374 17.6282 29.5735 17.6813 29.5204C17.7336 29.468 17.7978 29.4415 17.873 29.4415H20.5187C20.5941 29.4415 20.6575 29.468 20.7109 29.5204C20.7637 29.5735 20.79 29.6374 20.79 29.7128V42.4191C20.79 42.4951 20.8274 42.5322 20.9031 42.5322H28.2964C28.3714 42.5322 28.4355 42.5592 28.4886 42.6113C28.5412 42.6647 28.5678 42.7286 28.5678 42.8035V44.997C28.5678 45.0722 28.5412 45.1363 28.4886 45.1892C28.4355 45.2418 28.3714 45.2683 28.2964 45.2683H17.873C17.7978 45.2683 17.7336 45.2418 17.6813 45.1892ZM6.32017 44.7595C5.43041 44.2997 4.7449 43.6555 4.26267 42.8264C3.77994 41.9976 3.53906 41.0403 3.53906 39.9551V34.7318C3.53906 33.6469 3.77994 32.6896 4.26267 31.8608C4.7449 31.0317 5.43041 30.391 6.32017 29.9387C7.20894 29.4869 8.24174 29.2606 9.4176 29.2606C10.5782 29.2606 11.5995 29.4751 12.4814 29.9048C13.363 30.3344 14.0485 30.9447 14.5386 31.7364C15.0285 32.5278 15.2733 33.4432 15.2733 34.4831C15.2733 34.619 15.1828 34.7018 15.0022 34.7318L12.3567 34.8906H12.3113C12.1609 34.8906 12.0854 34.8078 12.0854 34.6416C12.0854 33.8428 11.8403 33.2025 11.3507 32.7198C10.8606 32.2376 10.2159 31.9964 9.4176 31.9964C8.60354 31.9964 7.95122 32.2376 7.46161 32.7198C6.97175 33.2025 6.7267 33.8428 6.7267 34.6416V40.0905C6.7267 40.8743 6.97175 41.5075 7.46161 41.9895C7.95122 42.4722 8.60354 42.7133 9.4176 42.7133C10.2159 42.7133 10.8606 42.4722 11.3507 41.9895C11.8403 41.5075 12.0854 40.8743 12.0854 40.0905C12.0854 39.9251 12.1758 39.8418 12.3567 39.8418L15.0022 39.9551C15.0771 39.9551 15.1413 39.9775 15.1939 40.0227C15.2467 40.0684 15.2733 40.121 15.2733 40.181C15.2733 41.2209 15.0285 42.1407 14.5386 42.9397C14.0485 43.7388 13.363 44.3559 12.4814 44.7932C11.5995 45.231 10.5782 45.4492 9.4176 45.4492C8.24174 45.4492 7.20894 45.2197 6.32017 44.7595Z" fill="#1D6434"/>
</g>
<path d="M61.2015 48.5648C61.1383 48.5648 61.0842 48.5872 61.0402 48.6311C60.9957 48.6759 60.9741 48.7295 60.9741 48.7924V53.8913C60.9741 53.9544 60.9422 53.9859 60.8792 53.9859H56.6905C56.6268 53.9859 56.5954 53.9544 56.5954 53.8913V48.7924C56.5954 48.7295 56.5733 48.6759 56.5288 48.6311C56.4848 48.5872 56.4314 48.5648 56.368 48.5648H54.1505C54.0869 48.5648 54.0335 48.5872 53.9893 48.6311C53.9453 48.6759 53.9232 48.7295 53.9232 48.7924V61.6051C53.9232 61.6685 53.9453 61.7221 53.9893 61.7666C54.0335 61.8106 54.0869 61.8327 54.1505 61.8327H56.368C56.4314 61.8327 56.4848 61.8106 56.5288 61.7666C56.5733 61.7221 56.5954 61.6685 56.5954 61.6051V56.374C56.5954 56.3108 56.6268 56.2789 56.6905 56.2789H60.8792C60.9422 56.2789 60.9741 56.3108 60.9741 56.374V61.6051C60.9741 61.6685 60.9957 61.7221 61.0402 61.7666C61.0842 61.8106 61.1383 61.8327 61.2015 61.8327H63.4187C63.4816 61.8327 63.536 61.8106 63.5802 61.7666C63.6242 61.7221 63.6463 61.6685 63.6463 61.6051V48.7924C63.6463 48.7295 63.6242 48.6759 63.5802 48.6311C63.536 48.5872 63.4816 48.5648 63.4187 48.5648H61.2015ZM44.9199 48.5648C44.7938 48.5648 44.712 48.6282 44.6739 48.7548L40.5795 61.5675C40.5544 61.6558 40.5611 61.7221 40.5987 61.7666C40.6365 61.8106 40.6938 61.8327 40.7693 61.8327H43.1763C43.3029 61.8327 43.3849 61.7698 43.4228 61.643L43.9724 59.7858C43.9975 59.7354 44.0292 59.7098 44.0673 59.7098H48.7299C48.768 59.7098 48.7994 59.7354 48.8248 59.7858L49.3933 61.643C49.4311 61.7698 49.5137 61.8327 49.6393 61.8327H52.047C52.1862 61.8327 52.2557 61.7757 52.2557 61.6621C52.2557 61.6245 52.2486 61.5931 52.2366 61.5675L48.1427 48.7548C48.1043 48.6282 48.022 48.5648 47.8954 48.5648H44.9199ZM44.6549 57.5302L46.3229 51.9011C46.3352 51.863 46.3541 51.8412 46.3796 51.8348C46.405 51.8284 46.4239 51.8502 46.4367 51.9011L48.1427 57.5302C48.1673 57.6061 48.1427 57.644 48.0667 57.644H44.7309C44.6675 57.644 44.6422 57.6061 44.6549 57.5302ZM29.5104 48.5648C29.4475 48.5648 29.3934 48.5872 29.3494 48.6311C29.3054 48.6759 29.2833 48.7295 29.2833 48.7924V61.6051C29.2833 61.6685 29.3054 61.7221 29.3494 61.7666C29.3934 61.8106 29.4475 61.8327 29.5104 61.8327H31.7282C31.7913 61.8327 31.8449 61.8106 31.8892 61.7666C31.9336 61.7221 31.9555 61.6685 31.9555 61.6051V56.4308C31.9555 56.3681 31.9872 56.3361 32.0506 56.3361H33.8132C33.8636 56.3361 33.9017 56.3617 33.927 56.4121L36.2959 61.6621C36.3465 61.7757 36.435 61.8327 36.5614 61.8327H38.8929C39.0313 61.8327 39.1016 61.7826 39.1016 61.6813C39.1016 61.6558 39.0888 61.6181 39.0635 61.5675L36.4856 56.2034C36.4606 56.1405 36.4793 56.0963 36.5427 56.0707C37.3132 55.818 37.9139 55.3854 38.3431 54.7727C38.7727 54.1599 38.9873 53.424 38.9873 52.5643C38.9873 51.7684 38.8199 51.0667 38.4854 50.4603C38.1504 49.8542 37.6765 49.3867 37.0637 49.0581C36.4505 48.7295 35.7399 48.5648 34.9315 48.5648H29.5104ZM31.9555 54.1943V50.9531C31.9555 50.8902 31.9872 50.8585 32.0506 50.8585H34.5338C35.0643 50.8585 35.4968 51.0195 35.8321 51.3422C36.1664 51.6639 36.3342 52.0781 36.3342 52.5832C36.3342 53.089 36.1664 53.4995 35.8321 53.8153C35.4968 54.1314 35.0643 54.289 34.5338 54.289H32.0506C31.9872 54.289 31.9555 54.2575 31.9555 54.1943ZM24.526 48.5648C24.4125 48.5648 24.324 48.6157 24.2608 48.7169L21.3986 53.133C21.3605 53.209 21.3229 53.209 21.2848 53.133L18.442 48.7169C18.3789 48.6157 18.2904 48.5648 18.1766 48.5648H15.9591C15.8957 48.5648 15.8418 48.5872 15.7976 48.6311C15.7531 48.6759 15.7312 48.7295 15.7312 48.7924V61.6051C15.7312 61.6685 15.7531 61.7221 15.7976 61.7666C15.8418 61.8106 15.8957 61.8327 15.9591 61.8327H18.1766C18.2397 61.8327 18.2931 61.8106 18.3376 61.7666C18.3818 61.7221 18.4039 61.6685 18.4039 61.6051V53.2657C18.4039 53.2154 18.4165 53.1866 18.442 53.1805C18.4669 53.1741 18.4917 53.1898 18.5177 53.2276L20.5266 56.374C20.59 56.4753 20.6782 56.5259 20.7923 56.5259H21.9106C22.0244 56.5259 22.1124 56.4753 22.1756 56.374L24.1849 53.2276C24.21 53.1898 24.235 53.1709 24.2608 53.1709C24.2857 53.1709 24.2984 53.1964 24.2984 53.2468V61.6051C24.2984 61.6685 24.3203 61.7221 24.3648 61.7666C24.4091 61.8106 24.4626 61.8327 24.526 61.8327H26.7438C26.807 61.8327 26.8603 61.8106 26.9045 61.7666C26.949 61.7221 26.9709 61.6685 26.9709 61.6051V48.7924C26.9709 48.7295 26.949 48.6759 26.9045 48.6311C26.8603 48.5872 26.807 48.5648 26.7438 48.5648H24.526ZM11.0878 48.5648C11.0241 48.5648 10.9708 48.5872 10.9263 48.6311C10.8823 48.6759 10.8602 48.7295 10.8602 48.7924V57.4545C10.8602 58.1245 10.6544 58.6645 10.2442 59.075C9.83351 59.4857 9.29327 59.6909 8.62374 59.6909C7.95347 59.6909 7.41348 59.4857 7.00326 59.075C6.5923 58.6645 6.38706 58.1245 6.38706 57.4545V48.7924C6.38706 48.7295 6.36494 48.6759 6.32094 48.6311C6.27646 48.5872 6.22287 48.5648 6.15971 48.5648H3.9422C3.87854 48.5648 3.8252 48.5872 3.7812 48.6311C3.73647 48.6759 3.71484 48.7295 3.71484 48.7924V57.4353C3.71484 58.3327 3.92008 59.1259 4.33054 59.8146C4.74101 60.5033 5.31665 61.0366 6.05524 61.4159C6.79458 61.7951 7.65041 61.9844 8.62374 61.9844C9.59682 61.9844 10.4529 61.7951 11.1917 61.4159C11.9313 61.0366 12.506 60.5033 12.9169 59.8146C13.3274 59.1259 13.5326 58.3327 13.5326 57.4353V48.7924C13.5326 48.7295 13.5105 48.6759 13.4665 48.6311C13.4218 48.5872 13.3685 48.5648 13.3053 48.5648H11.0878Z" fill="url(#paint4_linear_1333_3731)"/>
<mask id="mask2_1333_3731" style="mask-type:luminance" maskUnits="userSpaceOnUse" x="-40" y="-47" width="170" height="170">
<path d="M-40 -47H130V123H-40V-47Z" fill="white"/>
</mask>
<g mask="url(#mask2_1333_3731)">
<path d="M77.9431 28.7637C77.7509 28.7637 77.5828 28.6219 77.556 28.4264L76.9295 23.9873C76.9 23.7729 77.049 23.5746 77.2635 23.5446C77.4769 23.5151 77.6755 23.6635 77.7055 23.8779L78.3317 28.3171C78.3622 28.5312 78.2128 28.7293 77.9982 28.7595C77.9805 28.7624 77.9613 28.7637 77.9431 28.7637Z" fill="#231F20"/>
<path d="M79.5085 29.416C79.4141 29.416 79.319 29.3821 79.2445 29.3128C79.0845 29.1665 79.074 28.9193 79.2204 28.7595L81.8074 25.9383C81.9541 25.7781 82.2019 25.7673 82.3611 25.9135C82.5204 26.06 82.5315 26.3083 82.3855 26.4673L79.7983 29.2892C79.7204 29.3732 79.6152 29.416 79.5085 29.416Z" fill="#231F20"/>
<path d="M80.8512 31.0608C80.7617 31.0303 80.6826 30.9679 80.6344 30.8782C80.53 30.6882 80.6 30.4505 80.79 30.3465L84.1475 28.5085C84.3382 28.4041 84.5756 28.4741 84.6799 28.6639C84.7833 28.8538 84.7138 29.092 84.5243 29.1957L81.1663 31.0342C81.0655 31.0888 80.952 31.0952 80.8512 31.0608Z" fill="#231F20"/>
<path d="M85.4049 31.9161C85.3658 31.9488 85.3193 31.9751 85.2675 31.9908L82.1749 32.9438C81.9687 33.0067 81.7492 32.8914 81.6856 32.6842C81.6217 32.478 81.7372 32.2583 81.9444 32.1951L85.0369 31.2422C85.2439 31.1785 85.4633 31.294 85.527 31.501C85.5749 31.6561 85.5214 31.8183 85.4049 31.9161Z" fill="#231F20"/>
<path d="M86.2379 37.7821C86.1057 37.8561 85.9364 37.8494 85.8086 37.7516L82.1038 34.9265C81.9312 34.7958 81.8985 34.5495 82.0291 34.3777C82.1603 34.2054 82.4066 34.1719 82.5791 34.3034L86.2839 37.1283C86.456 37.2595 86.4889 37.5056 86.3574 37.6776C86.324 37.7219 86.2832 37.7565 86.2379 37.7821Z" fill="#231F20"/>
</g>
<path d="M60.0247 18.5674C59.9795 18.6001 59.9525 18.6517 59.9525 18.7053L59.9453 19.537C59.9439 19.6125 59.9903 19.6781 60.0609 19.7029L62.8439 20.6342C62.8609 20.6394 62.8803 20.6426 62.8978 20.6426C62.9174 20.6426 62.9376 20.6391 62.9558 20.6325C62.9558 20.6325 64.1859 20.1544 64.2442 20.1544C64.2553 20.1544 64.2899 20.1493 64.3027 20.1446L64.5578 20.0529C64.6262 20.0271 64.6709 19.9613 64.6694 19.8897L64.6618 19.0567C64.6618 19.001 64.6345 18.9481 64.5885 18.9169C64.5431 18.8852 64.4804 18.8778 64.4303 18.8965L62.9029 19.4645L60.1791 18.5438C60.1621 18.5381 60.1442 18.5354 60.1262 18.5354C60.0896 18.5354 60.053 18.5467 60.0247 18.5674Z" fill="url(#paint5_linear_1333_3731)"/>
</g>
<defs>
<linearGradient id="paint0_linear_1333_3731" x1="70.6485" y1="17.0594" x2="72.6343" y2="17.0594" gradientUnits="userSpaceOnUse">
<stop stop-color="#A1381E"/>
<stop offset="0.754265" stop-color="#FCCD5E"/>
<stop offset="1" stop-color="#A1381E"/>
</linearGradient>
<linearGradient id="paint1_linear_1333_3731" x1="66.4218" y1="18.1594" x2="70.1128" y2="18.1594" gradientUnits="userSpaceOnUse">
<stop stop-color="#A1381E"/>
<stop offset="0.754265" stop-color="#FCCD5E"/>
<stop offset="1" stop-color="#A1381E"/>
</linearGradient>
<linearGradient id="paint2_linear_1333_3731" x1="53.3476" y1="17.4427" x2="57.0387" y2="17.4427" gradientUnits="userSpaceOnUse">
<stop stop-color="#A1381E"/>
<stop offset="0.754265" stop-color="#FCCD5E"/>
<stop offset="1" stop-color="#A1381E"/>
</linearGradient>
<linearGradient id="paint3_linear_1333_3731" x1="57.3478" y1="18.5399" x2="59.3074" y2="18.5399" gradientUnits="userSpaceOnUse">
<stop stop-color="#A1381E"/>
<stop offset="0.754265" stop-color="#FCCD5E"/>
<stop offset="1" stop-color="#A1381E"/>
</linearGradient>
<linearGradient id="paint4_linear_1333_3731" x1="19.0122" y1="69.8678" x2="55.8514" y2="33.0286" gradientUnits="userSpaceOnUse">
<stop stop-color="#231F20"/>
<stop offset="0.00085704" stop-color="#231F20"/>
<stop offset="0.146262" stop-color="#231F20"/>
<stop offset="0.241815" stop-color="#A1381E"/>
<stop offset="0.495563" stop-color="#FCCD5E"/>
<stop offset="0.648234" stop-color="#A1381E"/>
<stop offset="0.868287" stop-color="#231F20"/>
<stop offset="1" stop-color="#231F20"/>
</linearGradient>
<linearGradient id="paint5_linear_1333_3731" x1="59.9452" y1="19.5889" x2="64.6694" y2="19.5889" gradientUnits="userSpaceOnUse">
<stop stop-color="#A1381E"/>
<stop offset="0.754265" stop-color="#FCCD5E"/>
<stop offset="1" stop-color="#A1381E"/>
</linearGradient>
<clipPath id="clip0_1333_3731">
<rect width="200" height="70" fill="white"/>
</clipPath>
</defs>
</svg>
